<svg xmlns="http://www.w3.org/2000/svg" viewBox="0 0 64 64">
  <!-- rounded red tile (brand color) -->
  <rect width="64" height="64" rx="14" fill="#ce1126"/>
  <!-- head -->
  <circle cx="32" cy="19" r="8" fill="#ffffff"/>
  <!-- shoulders -->
  <path d="M32 30c-9 0-16 5-17 13h34c-1-8-8-13-17-13z" fill="#ffffff"/>
  <!-- open book, left and right pages -->
  <path d="M32 42c-5-4-13-4-19-1v14c6-3 14-3 19 1z" fill="#faf6f0" stroke="#7a0a16" stroke-width="1.5" stroke-linejoin="round"/>
  <path d="M32 42c5-4 13-4 19-1v14c-6-3-14-3-19 1z" fill="#fff3e0" stroke="#7a0a16" stroke-width="1.5" stroke-linejoin="round"/>
  <!-- text lines on the pages -->
  <path d="M17 46c4-1 8-1 11 1M17 50c4-1 8-1 11 1" stroke="#c9a37a" stroke-width="1.4" fill="none" stroke-linecap="round"/>
  <path d="M47 46c-4-1-8-1-11 1M47 50c-4-1-8-1-11 1" stroke="#c9a37a" stroke-width="1.4" fill="none" stroke-linecap="round"/>
</svg>
